<mxfile host="Electron" modified="2023-10-17T16:43:50.892Z" agent="Mozilla/5.0 (Windows NT 10.0; Win64; x64) AppleWebKit/537.36 (KHTML, like Gecko) draw.io/22.0.2 Chrome/114.0.5735.289 Electron/25.8.4 Safari/537.36" etag="sblD3TwDs7p0-fK4Mwun" version="22.0.2" type="device">
  <diagram name="Page-1" id="vItLUBcVNA_-d5eo7CIL">
    <mxGraphModel dx="1658" dy="820" grid="1" gridSize="10" guides="1" tooltips="1" connect="1" arrows="1" fold="1" page="1" pageScale="1" pageWidth="850" pageHeight="1100" math="0" shadow="0">
      <root>
        <mxCell id="0" />
        <mxCell id="1" parent="0" />
        <mxCell id="cUr5IGkHN1plsNDW3ZbF-2" style="edgeStyle=orthogonalEdgeStyle;rounded=0;orthogonalLoop=1;jettySize=auto;html=1;" parent="1" source="cUr5IGkHN1plsNDW3ZbF-1" edge="1">
          <mxGeometry relative="1" as="geometry">
            <mxPoint x="420" y="440" as="targetPoint" />
          </mxGeometry>
        </mxCell>
        <mxCell id="cUr5IGkHN1plsNDW3ZbF-1" value="Display Podcasts" style="whiteSpace=wrap;html=1;aspect=fixed;" parent="1" vertex="1">
          <mxGeometry x="380" y="270" width="80" height="80" as="geometry" />
        </mxCell>
        <mxCell id="cUr5IGkHN1plsNDW3ZbF-4" value="Podcast Selected" style="text;html=1;strokeColor=none;fillColor=none;align=center;verticalAlign=middle;whiteSpace=wrap;rounded=0;" parent="1" vertex="1">
          <mxGeometry x="430" y="370" width="60" height="30" as="geometry" />
        </mxCell>
        <mxCell id="cUr5IGkHN1plsNDW3ZbF-6" style="edgeStyle=orthogonalEdgeStyle;rounded=0;orthogonalLoop=1;jettySize=auto;html=1;" parent="1" source="cUr5IGkHN1plsNDW3ZbF-5" target="cUr5IGkHN1plsNDW3ZbF-7" edge="1">
          <mxGeometry relative="1" as="geometry">
            <mxPoint x="420" y="600" as="targetPoint" />
          </mxGeometry>
        </mxCell>
        <mxCell id="cUr5IGkHN1plsNDW3ZbF-5" value="Display Podcast Actions" style="whiteSpace=wrap;html=1;aspect=fixed;" parent="1" vertex="1">
          <mxGeometry x="380" y="440" width="80" height="80" as="geometry" />
        </mxCell>
        <mxCell id="cUr5IGkHN1plsNDW3ZbF-11" style="edgeStyle=orthogonalEdgeStyle;rounded=0;orthogonalLoop=1;jettySize=auto;html=1;" parent="1" source="cUr5IGkHN1plsNDW3ZbF-7" target="cUr5IGkHN1plsNDW3ZbF-12" edge="1">
          <mxGeometry relative="1" as="geometry">
            <mxPoint x="420" y="750" as="targetPoint" />
          </mxGeometry>
        </mxCell>
        <mxCell id="cUr5IGkHN1plsNDW3ZbF-7" value="Confirming Deletion" style="whiteSpace=wrap;html=1;aspect=fixed;" parent="1" vertex="1">
          <mxGeometry x="380" y="580" width="80" height="80" as="geometry" />
        </mxCell>
        <mxCell id="cUr5IGkHN1plsNDW3ZbF-8" value="Delete Podcast Action Selected" style="text;html=1;align=center;verticalAlign=middle;resizable=0;points=[];autosize=1;strokeColor=none;fillColor=none;" parent="1" vertex="1">
          <mxGeometry x="425" y="528" width="190" height="30" as="geometry" />
        </mxCell>
        <mxCell id="cUr5IGkHN1plsNDW3ZbF-9" style="edgeStyle=orthogonalEdgeStyle;rounded=0;orthogonalLoop=1;jettySize=auto;html=1;entryX=0.004;entryY=0.365;entryDx=0;entryDy=0;entryPerimeter=0;" parent="1" source="cUr5IGkHN1plsNDW3ZbF-7" target="cUr5IGkHN1plsNDW3ZbF-1" edge="1">
          <mxGeometry relative="1" as="geometry">
            <Array as="points">
              <mxPoint x="250" y="620" />
              <mxPoint x="250" y="300" />
              <mxPoint x="360" y="300" />
            </Array>
          </mxGeometry>
        </mxCell>
        <mxCell id="cUr5IGkHN1plsNDW3ZbF-10" value="Fail to Confirm" style="text;html=1;align=center;verticalAlign=middle;resizable=0;points=[];autosize=1;strokeColor=none;fillColor=none;" parent="1" vertex="1">
          <mxGeometry x="150" y="430" width="100" height="30" as="geometry" />
        </mxCell>
        <mxCell id="cUr5IGkHN1plsNDW3ZbF-15" style="edgeStyle=orthogonalEdgeStyle;rounded=0;orthogonalLoop=1;jettySize=auto;html=1;entryX=1.046;entryY=0.348;entryDx=0;entryDy=0;entryPerimeter=0;" parent="1" source="cUr5IGkHN1plsNDW3ZbF-12" target="cUr5IGkHN1plsNDW3ZbF-1" edge="1">
          <mxGeometry relative="1" as="geometry">
            <mxPoint x="660" y="290" as="targetPoint" />
            <Array as="points">
              <mxPoint x="710" y="800" />
              <mxPoint x="710" y="298" />
            </Array>
          </mxGeometry>
        </mxCell>
        <mxCell id="cUr5IGkHN1plsNDW3ZbF-12" value="Deleting Podcast" style="whiteSpace=wrap;html=1;aspect=fixed;" parent="1" vertex="1">
          <mxGeometry x="380" y="760" width="80" height="80" as="geometry" />
        </mxCell>
        <mxCell id="cUr5IGkHN1plsNDW3ZbF-14" value="Deletion Confirmed" style="text;html=1;align=center;verticalAlign=middle;resizable=0;points=[];autosize=1;strokeColor=none;fillColor=none;" parent="1" vertex="1">
          <mxGeometry x="420" y="688" width="130" height="30" as="geometry" />
        </mxCell>
        <mxCell id="cUr5IGkHN1plsNDW3ZbF-17" value="After Deletion" style="text;html=1;align=center;verticalAlign=middle;resizable=0;points=[];autosize=1;strokeColor=none;fillColor=none;" parent="1" vertex="1">
          <mxGeometry x="620" y="600" width="100" height="30" as="geometry" />
        </mxCell>
        <mxCell id="cUr5IGkHN1plsNDW3ZbF-18" value="Delete Podcast State Chart" style="text;html=1;align=center;verticalAlign=middle;resizable=0;points=[];autosize=1;strokeColor=none;fillColor=none;" parent="1" vertex="1">
          <mxGeometry x="595" y="128" width="170" height="30" as="geometry" />
        </mxCell>
        <mxCell id="fQSCi_dyiE7YHIR6vQHv-1" value="BEANSTALK&lt;br&gt;Cal Crosby, Ashton Stroud, Sarah Hardin, Jon Story" style="text;html=1;align=center;verticalAlign=middle;resizable=0;points=[];autosize=1;strokeColor=none;fillColor=none;" vertex="1" parent="1">
          <mxGeometry x="125" y="190" width="300" height="40" as="geometry" />
        </mxCell>
      </root>
    </mxGraphModel>
  </diagram>
</mxfile>
